<svg width="40" height="40" viewBox="0 0 40 40" fill="none" xmlns="http://www.w3.org/2000/svg">
<path d="M33.2106 18H31.8586C31.7069 18 31.5812 17.9631 31.4816 17.8895C31.3862 17.8115 31.3169 17.7161 31.2736 17.6035L30.5716 15.686H26.6781L25.9761 17.6035C25.9414 17.7031 25.8721 17.7941 25.7681 17.8765C25.6684 17.9588 25.5449 18 25.3976 18H24.0391L27.7311 8.60095H29.5186L33.2106 18ZM27.1266 14.451H30.1231L28.9791 11.3245C28.9271 11.1858 28.8686 11.0233 28.8036 10.837C28.7429 10.6463 28.6822 10.4405 28.6216 10.2195C28.5609 10.4405 28.5002 10.6463 28.4396 10.837C28.3832 11.0276 28.3269 11.1945 28.2706 11.3375L27.1266 14.451Z" fill="#005DE9"/>
<path d="M31.6638 22.601V23.2445C31.6638 23.4438 31.6075 23.6258 31.4948 23.7905L26.6718 30.6025H31.5468V32H24.4033V31.311C24.4033 31.2243 24.4185 31.142 24.4488 31.064C24.4792 30.9816 24.5182 30.9058 24.5658 30.8365L29.4018 23.992H24.7088V22.601H31.6638Z" fill="#005DE9"/>
<path fill-rule="evenodd" clip-rule="evenodd" d="M15.5 31.4998V18.4998H17.5V29.6312L20.4453 27.6677L21.5547 29.3318L17.0547 32.3318C16.7478 32.5364 16.3533 32.5554 16.0281 32.3814C15.703 32.2074 15.5 31.8686 15.5 31.4998Z" fill="#005DE9"/>
<path fill-rule="evenodd" clip-rule="evenodd" d="M12.5 10.9998V23.9998H10.5V12.8683L7.5547 14.8318L6.4453 13.1677L10.9453 10.1677C11.2522 9.96313 11.6467 9.94406 11.9719 10.1181C12.297 10.2921 12.5 10.631 12.5 10.9998Z" fill="#D9D9D9"/>
</svg>
