<svg width="30" height="30" viewBox="0 0 30 30" fill="none" xmlns="http://www.w3.org/2000/svg">
<path opacity="0.2" fill-rule="evenodd" clip-rule="evenodd" d="M15.7285 1.66711H10.1035V5.15879C9.87024 5.24337 9.64187 5.33816 9.41893 5.44264L6.94964 2.97335L2.97217 6.95083L5.44137 9.42003C5.33689 9.64297 5.24208 9.87134 5.1575 10.1046H1.66602V15.7296H5.15752C5.24211 15.9629 5.33694 16.1913 5.44144 16.4143L2.97249 18.8833L6.94996 22.8607L9.41907 20.3916C9.64196 20.4961 9.87029 20.5908 10.1035 20.6754V24.1671H15.7285V20.6752C15.9617 20.5906 16.1899 20.4958 16.4128 20.3914L18.8821 22.8607L22.8595 18.8833L20.3901 16.4139C20.4946 16.191 20.5893 15.9628 20.6739 15.7296H24.166V10.1046H20.6739C20.5894 9.8715 20.4946 9.64327 20.3902 9.42048L22.8599 6.95083L18.8824 2.97335L16.4129 5.44284C16.19 5.33838 15.9617 5.2436 15.7285 5.15903V1.66711ZM12.9163 17.5004C15.4476 17.5004 17.4997 15.4484 17.4997 12.9171C17.4997 10.3858 15.4476 8.33374 12.9163 8.33374C10.385 8.33374 8.33301 10.3858 8.33301 12.9171C8.33301 15.4484 10.385 17.5004 12.9163 17.5004Z" fill="#22354A"/>
<path fill-rule="evenodd" clip-rule="evenodd" d="M19.583 19.6671C20.8947 19.6671 21.958 18.6038 21.958 17.2921C21.958 15.9804 20.8947 14.9171 19.583 14.9171C18.2713 14.9171 17.208 15.9804 17.208 17.2921C17.208 18.6038 18.2713 19.6671 19.583 19.6671ZM19.583 21.6671C21.9993 21.6671 23.958 19.7084 23.958 17.2921C23.958 14.8759 21.9993 12.9171 19.583 12.9171C17.1668 12.9171 15.208 14.8759 15.208 17.2921C15.208 19.7084 17.1668 21.6671 19.583 21.6671Z" fill="#22354A"/>
<path fill-rule="evenodd" clip-rule="evenodd" d="M19.5834 25.292C15.9777 25.292 13.0001 26.9582 11.6951 29.1744L9.97168 28.1596C11.7074 25.2119 15.4221 23.292 19.5834 23.292C23.7447 23.292 27.4593 25.2119 29.1951 28.1596L27.4717 29.1744C26.1667 26.9582 23.189 25.292 19.5834 25.292Z" fill="#22354A"/>
</svg>
