<?xml version="1.0" encoding="UTF-8"?>
<svg id="CSILoading" data-name="Layer 1" xmlns="http://www.w3.org/2000/svg" version="1.1" viewBox="0 0 90 90">
  <g id="bg">
    <path fill="#0d63ba" d="M45,0l39,22.5v45l-39,22.5L6,67.5V22.5L45,0Z"/>
  </g>
  <g id="body">
    <path fill="#136fcd" d="M45,45V1.8l37.5,21.6-37.5,21.6Z"/>
    <path fill="#0059b3" d="M82.5,66.6l-37.5-21.6v43.2l37.5-21.6Z"/>
    <path fill="#005bb8" d="M7.5,66.6l37.5-21.6L7.5,23.7v43h0Z"/>
    <path fill="#0056ac" d="M45,88.2v-43.2L7.5,66.6l37.5,21.6Z"/>
  </g>
  <g id="border">
    <path stoke="#0d63ba" stroke-width="3px" fill="none" d="M7.5,23.4L45,1.7l37.5,21.6v43.3l-37.5,21.6L7.5,66.6V23.4Z"/>
  </g>
  <g id="i">
    <path fill="#fff" d="M51.5,31.2c-1.5,1.3-1.8,3.2-.7,4.2,1.2,1,3.3.7,4.8-.6s1.8-3.2.7-4.2c-.5-.4-1.1-.6-1.8-.6-1,0-2.1.4-3,1.2Z"/>
    <path fill="#fff" d="M44.8,40.3l-10.7,11.7s-3.7,4.6-1.4,6.8,5.8,1,7,.5c1.5-.6,5-2.8,6.2-3.8,1.5-1.2,7.7-6,7.7-6v-1.7s-6.4,5-8.5,6.7c-2.6,2-10.9,6.7-5.9.8l12.5-15h-7,.1Z"/>
  </g>
</svg>