<svg width="24" height="24" viewBox="0 0 24 24" fill="none" xmlns="http://www.w3.org/2000/svg"> <g opacity="0.4"> <path d="M16.8125 6.8125H0V4.8125H16.8125V6.8125Z" fill="#22354A"/> <path d="M10.25 18.0625H0V16.0625H10.25V18.0625Z" fill="#22354A"/> <path d="M8.3125 14.25V12.4375H0V10.4375H8.3125V8.625H10.3125V10.4375H11.1875V12.4375H10.3125V14.25H8.3125Z" fill="#22354A"/> </g> <path d="M2.5625 3V8.625H4.5625V3H2.5625Z" fill="#22354A"/> <path d="M5.375 14.25V19.875H7.375V14.25H5.375Z" fill="#22354A"/> <path fill-rule="evenodd" clip-rule="evenodd" d="M19.938 18.3019C19.2017 18.707 18.3558 18.9375 17.4561 18.9375C14.6083 18.9375 12.2998 16.629 12.2998 13.7812C12.2998 10.9335 14.6083 8.625 17.4561 8.625C20.3038 8.625 22.6123 10.9335 22.6123 13.7812C22.6123 15.004 22.1867 16.1273 21.4756 17.0111L23.9445 19.48L22.5303 20.8942L19.938 18.3019ZM20.6123 13.7812C20.6123 15.5244 19.1992 16.9375 17.4561 16.9375C15.7129 16.9375 14.2998 15.5244 14.2998 13.7812C14.2998 12.0381 15.7129 10.625 17.4561 10.625C19.1992 10.625 20.6123 12.0381 20.6123 13.7812Z" fill="#22354A"/> </svg>
