<svg width="30" height="30" viewBox="0 0 30 30" fill="none" xmlns="http://www.w3.org/2000/svg">
<path fill-rule="evenodd" clip-rule="evenodd" d="M5.97286 13.4843C4.16865 10.3593 5.23935 6.36345 8.36433 4.55924C11.4893 2.75503 15.4852 3.82573 17.2894 6.95071L24.2542 19.014C25.3952 20.9903 24.7181 23.5174 22.7418 24.6584C20.7655 25.7994 18.2384 25.1223 17.0974 23.146L11.257 13.0302L13.4221 11.7802L19.2625 21.896C19.7131 22.6766 20.7112 22.944 21.4918 22.4934C22.2723 22.0427 22.5398 21.0446 22.0891 20.264L15.1244 8.20071C14.0105 6.27146 11.5436 5.61045 9.61433 6.7243C7.68508 7.83816 7.02407 10.3051 8.13793 12.2343L15.0372 24.1842L12.8721 25.4342L5.97286 13.4843Z" fill="#22354A" fill-opacity="0.4"/>
<path fill-rule="evenodd" clip-rule="evenodd" d="M12.0715 19.3569L15.0715 24.3569L12.9277 25.6432L9.92773 20.6432L12.0715 19.3569Z" fill="#22354A"/>
</svg>
