<svg width="220" height="70" viewBox="0 0 220 70" fill="none" xmlns="http://www.w3.org/2000/svg">
<path d="M15.9598 30.11H10.5898V51.26H15.9598V30.11Z" fill="#FFCD01"/>
<path d="M26.0302 39.18H20.6602V55.96H26.0302V39.18Z" fill="#E74C3C"/>
<path d="M36.1005 42.54H30.7305V55.97H36.1005V42.54Z" fill="#00C39C"/>
<path d="M46.1708 33.85H40.8008V51.64H46.1708V33.85Z" fill="#50ABD4"/>
<path d="M63.166 61.75V53.1602H66.4062C66.9766 53.1602 67.4121 53.1875 67.7129 53.2422C68.1348 53.3125 68.4883 53.4473 68.7734 53.6465C69.0586 53.8418 69.2871 54.1172 69.459 54.4727C69.6348 54.8281 69.7227 55.2188 69.7227 55.6445C69.7227 56.375 69.4902 56.9941 69.0254 57.502C68.5605 58.0059 67.7207 58.2578 66.5059 58.2578H64.3027V61.75H63.166ZM64.3027 57.2441H66.5234C67.2578 57.2441 67.7793 57.1074 68.0879 56.834C68.3965 56.5605 68.5508 56.1758 68.5508 55.6797C68.5508 55.3203 68.459 55.0137 68.2754 54.7598C68.0957 54.502 67.8574 54.332 67.5605 54.25C67.3691 54.1992 67.0156 54.1738 66.5 54.1738H64.3027V57.2441ZM71.0234 61.75V55.5273H71.9727V56.4707C72.2148 56.0293 72.4375 55.7383 72.6406 55.5977C72.8477 55.457 73.0742 55.3867 73.3203 55.3867C73.6758 55.3867 74.0371 55.5 74.4043 55.7266L74.041 56.7051C73.7832 56.5527 73.5254 56.4766 73.2676 56.4766C73.0371 56.4766 72.8301 56.5469 72.6465 56.6875C72.4629 56.8242 72.332 57.0156 72.2539 57.2617C72.1367 57.6367 72.0781 58.0469 72.0781 58.4922V61.75H71.0234ZM74.6387 58.6387C74.6387 57.4863 74.959 56.6328 75.5996 56.0781C76.1348 55.6172 76.7871 55.3867 77.5566 55.3867C78.4121 55.3867 79.1113 55.668 79.6543 56.2305C80.1973 56.7891 80.4688 57.5625 80.4688 58.5508C80.4688 59.3516 80.3477 59.9824 80.1055 60.4434C79.8672 60.9004 79.5176 61.2559 79.0566 61.5098C78.5996 61.7637 78.0996 61.8906 77.5566 61.8906C76.6855 61.8906 75.9805 61.6113 75.4414 61.0527C74.9062 60.4941 74.6387 59.6895 74.6387 58.6387ZM75.7227 58.6387C75.7227 59.4355 75.8965 60.0332 76.2441 60.4316C76.5918 60.8262 77.0293 61.0234 77.5566 61.0234C78.0801 61.0234 78.5156 60.8242 78.8633 60.4258C79.2109 60.0273 79.3848 59.4199 79.3848 58.6035C79.3848 57.834 79.209 57.252 78.8574 56.8574C78.5098 56.459 78.0762 56.2598 77.5566 56.2598C77.0293 56.2598 76.5918 56.457 76.2441 56.8516C75.8965 57.2461 75.7227 57.8418 75.7227 58.6387ZM81.7051 54.3848V53.1602H82.7598V54.3848H81.7051ZM80.3691 64.1641L80.5684 63.2676C80.7793 63.3223 80.9453 63.3496 81.0664 63.3496C81.2812 63.3496 81.4414 63.2773 81.5469 63.1328C81.6523 62.9922 81.7051 62.6367 81.7051 62.0664V55.5273H82.7598V62.0898C82.7598 62.8555 82.6602 63.3887 82.4609 63.6895C82.207 64.0801 81.7852 64.2754 81.1953 64.2754C80.9102 64.2754 80.6348 64.2383 80.3691 64.1641ZM88.6426 59.7461L89.7324 59.8809C89.5605 60.5176 89.2422 61.0117 88.7773 61.3633C88.3125 61.7148 87.7188 61.8906 86.9961 61.8906C86.0859 61.8906 85.3633 61.6113 84.8281 61.0527C84.2969 60.4902 84.0312 59.7031 84.0312 58.6914C84.0312 57.6445 84.3008 56.832 84.8398 56.2539C85.3789 55.6758 86.0781 55.3867 86.9375 55.3867C87.7695 55.3867 88.4492 55.6699 88.9766 56.2363C89.5039 56.8027 89.7676 57.5996 89.7676 58.627C89.7676 58.6895 89.7656 58.7832 89.7617 58.9082H85.1211C85.1602 59.5918 85.3535 60.1152 85.7012 60.4785C86.0488 60.8418 86.4824 61.0234 87.002 61.0234C87.3887 61.0234 87.7188 60.9219 87.9922 60.7188C88.2656 60.5156 88.4824 60.1914 88.6426 59.7461ZM85.1797 58.041H88.6543C88.6074 57.5176 88.4746 57.125 88.2559 56.8633C87.9199 56.457 87.4844 56.2539 86.9492 56.2539C86.4648 56.2539 86.0566 56.416 85.7246 56.7402C85.3965 57.0645 85.2148 57.498 85.1797 58.041ZM95.123 59.4707L96.1602 59.6055C96.0469 60.3203 95.7559 60.8809 95.2871 61.2871C94.8223 61.6895 94.25 61.8906 93.5703 61.8906C92.7188 61.8906 92.0332 61.6133 91.5137 61.0586C90.998 60.5 90.7402 59.7012 90.7402 58.6621C90.7402 57.9902 90.8516 57.4023 91.0742 56.8984C91.2969 56.3945 91.6348 56.0176 92.0879 55.7676C92.5449 55.5137 93.041 55.3867 93.5762 55.3867C94.252 55.3867 94.8047 55.5586 95.2344 55.9023C95.6641 56.2422 95.9395 56.7266 96.0605 57.3555L95.0352 57.5137C94.9375 57.0957 94.7637 56.7812 94.5137 56.5703C94.2676 56.3594 93.9688 56.2539 93.6172 56.2539C93.0859 56.2539 92.6543 56.4453 92.3223 56.8281C91.9902 57.207 91.8242 57.8086 91.8242 58.6328C91.8242 59.4688 91.9844 60.0762 92.3047 60.4551C92.625 60.834 93.043 61.0234 93.5586 61.0234C93.9727 61.0234 94.3184 60.8965 94.5957 60.6426C94.873 60.3887 95.0488 59.998 95.123 59.4707ZM99.3652 60.8066L99.5176 61.7383C99.2207 61.8008 98.9551 61.832 98.7207 61.832C98.3379 61.832 98.041 61.7715 97.8301 61.6504C97.6191 61.5293 97.4707 61.3711 97.3848 61.1758C97.2988 60.9766 97.2559 60.5605 97.2559 59.9277V56.3477H96.4824V55.5273H97.2559V53.9863L98.3047 53.3535V55.5273H99.3652V56.3477H98.3047V59.9863C98.3047 60.2871 98.3223 60.4805 98.3574 60.5664C98.3965 60.6523 98.457 60.7207 98.5391 60.7715C98.625 60.8223 98.7461 60.8477 98.9023 60.8477C99.0195 60.8477 99.1738 60.834 99.3652 60.8066ZM103.842 61.75V53.1602H105.553L107.586 59.2422C107.773 59.8086 107.91 60.2324 107.996 60.5137C108.094 60.2012 108.246 59.7422 108.453 59.1367L110.51 53.1602H112.039V61.75H110.943V54.5605L108.447 61.75H107.422L104.938 54.4375V61.75H103.842ZM117.799 60.9824C117.408 61.3145 117.031 61.5488 116.668 61.6855C116.309 61.8223 115.922 61.8906 115.508 61.8906C114.824 61.8906 114.299 61.7246 113.932 61.3926C113.564 61.0566 113.381 60.6289 113.381 60.1094C113.381 59.8047 113.449 59.5273 113.586 59.2773C113.727 59.0234 113.908 58.8203 114.131 58.668C114.357 58.5156 114.611 58.4004 114.893 58.3223C115.1 58.2676 115.412 58.2148 115.83 58.1641C116.682 58.0625 117.309 57.9414 117.711 57.8008C117.715 57.6562 117.717 57.5645 117.717 57.5254C117.717 57.0957 117.617 56.793 117.418 56.6172C117.148 56.3789 116.748 56.2598 116.217 56.2598C115.721 56.2598 115.354 56.3477 115.115 56.5234C114.881 56.6953 114.707 57.002 114.594 57.4434L113.562 57.3027C113.656 56.8613 113.811 56.5059 114.025 56.2363C114.24 55.9629 114.551 55.7539 114.957 55.6094C115.363 55.4609 115.834 55.3867 116.369 55.3867C116.9 55.3867 117.332 55.4492 117.664 55.5742C117.996 55.6992 118.24 55.8574 118.396 56.0488C118.553 56.2363 118.662 56.4746 118.725 56.7637C118.76 56.9434 118.777 57.2676 118.777 57.7363V59.1426C118.777 60.123 118.799 60.7441 118.842 61.0059C118.889 61.2637 118.979 61.5117 119.111 61.75H118.01C117.9 61.5312 117.83 61.2754 117.799 60.9824ZM117.711 58.627C117.328 58.7832 116.754 58.916 115.988 59.0254C115.555 59.0879 115.248 59.1582 115.068 59.2363C114.889 59.3145 114.75 59.4297 114.652 59.582C114.555 59.7305 114.506 59.8965 114.506 60.0801C114.506 60.3613 114.611 60.5957 114.822 60.7832C115.037 60.9707 115.35 61.0645 115.76 61.0645C116.166 61.0645 116.527 60.9766 116.844 60.8008C117.16 60.6211 117.393 60.377 117.541 60.0684C117.654 59.8301 117.711 59.4785 117.711 59.0137V58.627ZM120.418 61.75V55.5273H121.367V56.4121C121.824 55.7285 122.484 55.3867 123.348 55.3867C123.723 55.3867 124.066 55.4551 124.379 55.5918C124.695 55.7246 124.932 55.9004 125.088 56.1191C125.244 56.3379 125.354 56.5977 125.416 56.8984C125.455 57.0938 125.475 57.4355 125.475 57.9238V61.75H124.42V57.9648C124.42 57.5352 124.379 57.2148 124.297 57.0039C124.215 56.7891 124.068 56.6191 123.857 56.4941C123.65 56.3652 123.406 56.3008 123.125 56.3008C122.676 56.3008 122.287 56.4434 121.959 56.7285C121.635 57.0137 121.473 57.5547 121.473 58.3516V61.75H120.418ZM131.158 60.9824C130.768 61.3145 130.391 61.5488 130.027 61.6855C129.668 61.8223 129.281 61.8906 128.867 61.8906C128.184 61.8906 127.658 61.7246 127.291 61.3926C126.924 61.0566 126.74 60.6289 126.74 60.1094C126.74 59.8047 126.809 59.5273 126.945 59.2773C127.086 59.0234 127.268 58.8203 127.49 58.668C127.717 58.5156 127.971 58.4004 128.252 58.3223C128.459 58.2676 128.771 58.2148 129.189 58.1641C130.041 58.0625 130.668 57.9414 131.07 57.8008C131.074 57.6562 131.076 57.5645 131.076 57.5254C131.076 57.0957 130.977 56.793 130.777 56.6172C130.508 56.3789 130.107 56.2598 129.576 56.2598C129.08 56.2598 128.713 56.3477 128.475 56.5234C128.24 56.6953 128.066 57.002 127.953 57.4434L126.922 57.3027C127.016 56.8613 127.17 56.5059 127.385 56.2363C127.6 55.9629 127.91 55.7539 128.316 55.6094C128.723 55.4609 129.193 55.3867 129.729 55.3867C130.26 55.3867 130.691 55.4492 131.023 55.5742C131.355 55.6992 131.6 55.8574 131.756 56.0488C131.912 56.2363 132.021 56.4746 132.084 56.7637C132.119 56.9434 132.137 57.2676 132.137 57.7363V59.1426C132.137 60.123 132.158 60.7441 132.201 61.0059C132.248 61.2637 132.338 61.5117 132.471 61.75H131.369C131.26 61.5312 131.189 61.2754 131.158 60.9824ZM131.07 58.627C130.688 58.7832 130.113 58.916 129.348 59.0254C128.914 59.0879 128.607 59.1582 128.428 59.2363C128.248 59.3145 128.109 59.4297 128.012 59.582C127.914 59.7305 127.865 59.8965 127.865 60.0801C127.865 60.3613 127.971 60.5957 128.182 60.7832C128.396 60.9707 128.709 61.0645 129.119 61.0645C129.525 61.0645 129.887 60.9766 130.203 60.8008C130.52 60.6211 130.752 60.377 130.9 60.0684C131.014 59.8301 131.07 59.4785 131.07 59.0137V58.627ZM133.584 62.2656L134.609 62.418C134.652 62.7344 134.771 62.9648 134.967 63.1094C135.229 63.3047 135.586 63.4023 136.039 63.4023C136.527 63.4023 136.904 63.3047 137.17 63.1094C137.436 62.9141 137.615 62.6406 137.709 62.2891C137.764 62.0742 137.789 61.623 137.785 60.9355C137.324 61.4785 136.75 61.75 136.062 61.75C135.207 61.75 134.545 61.4414 134.076 60.8242C133.607 60.207 133.373 59.4668 133.373 58.6035C133.373 58.0098 133.48 57.4629 133.695 56.9629C133.91 56.459 134.221 56.0703 134.627 55.7969C135.037 55.5234 135.518 55.3867 136.068 55.3867C136.803 55.3867 137.408 55.6836 137.885 56.2773V55.5273H138.857V60.9062C138.857 61.875 138.758 62.5605 138.559 62.9629C138.363 63.3691 138.051 63.6895 137.621 63.9238C137.195 64.1582 136.67 64.2754 136.045 64.2754C135.303 64.2754 134.703 64.1074 134.246 63.7715C133.789 63.4395 133.568 62.9375 133.584 62.2656ZM134.457 58.5273C134.457 59.3438 134.619 59.9395 134.943 60.3145C135.268 60.6895 135.674 60.877 136.162 60.877C136.646 60.877 137.053 60.6914 137.381 60.3203C137.709 59.9453 137.873 59.3594 137.873 58.5625C137.873 57.8008 137.703 57.2266 137.363 56.8398C137.027 56.4531 136.621 56.2598 136.145 56.2598C135.676 56.2598 135.277 56.4512 134.949 56.834C134.621 57.2129 134.457 57.7773 134.457 58.5273ZM144.717 59.7461L145.807 59.8809C145.635 60.5176 145.316 61.0117 144.852 61.3633C144.387 61.7148 143.793 61.8906 143.07 61.8906C142.16 61.8906 141.438 61.6113 140.902 61.0527C140.371 60.4902 140.105 59.7031 140.105 58.6914C140.105 57.6445 140.375 56.832 140.914 56.2539C141.453 55.6758 142.152 55.3867 143.012 55.3867C143.844 55.3867 144.523 55.6699 145.051 56.2363C145.578 56.8027 145.842 57.5996 145.842 58.627C145.842 58.6895 145.84 58.7832 145.836 58.9082H141.195C141.234 59.5918 141.428 60.1152 141.775 60.4785C142.123 60.8418 142.557 61.0234 143.076 61.0234C143.463 61.0234 143.793 60.9219 144.066 60.7188C144.34 60.5156 144.557 60.1914 144.717 59.7461ZM141.254 58.041H144.729C144.682 57.5176 144.549 57.125 144.33 56.8633C143.994 56.457 143.559 56.2539 143.023 56.2539C142.539 56.2539 142.131 56.416 141.799 56.7402C141.471 57.0645 141.289 57.498 141.254 58.041ZM147.137 61.75V55.5273H148.08V56.4004C148.275 56.0957 148.535 55.8516 148.859 55.668C149.184 55.4805 149.553 55.3867 149.967 55.3867C150.428 55.3867 150.805 55.4824 151.098 55.6738C151.395 55.8652 151.604 56.1328 151.725 56.4766C152.217 55.75 152.857 55.3867 153.646 55.3867C154.264 55.3867 154.738 55.5586 155.07 55.9023C155.402 56.2422 155.568 56.7676 155.568 57.4785V61.75H154.52V57.8301C154.52 57.4082 154.484 57.1055 154.414 56.9219C154.348 56.7344 154.225 56.584 154.045 56.4707C153.865 56.3574 153.654 56.3008 153.412 56.3008C152.975 56.3008 152.611 56.4473 152.322 56.7402C152.033 57.0293 151.889 57.4941 151.889 58.1348V61.75H150.834V57.707C150.834 57.2383 150.748 56.8867 150.576 56.6523C150.404 56.418 150.123 56.3008 149.732 56.3008C149.436 56.3008 149.16 56.3789 148.906 56.5352C148.656 56.6914 148.475 56.9199 148.361 57.2207C148.248 57.5215 148.191 57.9551 148.191 58.5215V61.75H147.137ZM161.393 59.7461L162.482 59.8809C162.311 60.5176 161.992 61.0117 161.527 61.3633C161.062 61.7148 160.469 61.8906 159.746 61.8906C158.836 61.8906 158.113 61.6113 157.578 61.0527C157.047 60.4902 156.781 59.7031 156.781 58.6914C156.781 57.6445 157.051 56.832 157.59 56.2539C158.129 55.6758 158.828 55.3867 159.688 55.3867C160.52 55.3867 161.199 55.6699 161.727 56.2363C162.254 56.8027 162.518 57.5996 162.518 58.627C162.518 58.6895 162.516 58.7832 162.512 58.9082H157.871C157.91 59.5918 158.104 60.1152 158.451 60.4785C158.799 60.8418 159.232 61.0234 159.752 61.0234C160.139 61.0234 160.469 60.9219 160.742 60.7188C161.016 60.5156 161.232 60.1914 161.393 59.7461ZM157.93 58.041H161.404C161.357 57.5176 161.225 57.125 161.006 56.8633C160.67 56.457 160.234 56.2539 159.699 56.2539C159.215 56.2539 158.807 56.416 158.475 56.7402C158.146 57.0645 157.965 57.498 157.93 58.041ZM163.812 61.75V55.5273H164.762V56.4121C165.219 55.7285 165.879 55.3867 166.742 55.3867C167.117 55.3867 167.461 55.4551 167.773 55.5918C168.09 55.7246 168.326 55.9004 168.482 56.1191C168.639 56.3379 168.748 56.5977 168.811 56.8984C168.85 57.0938 168.869 57.4355 168.869 57.9238V61.75H167.814V57.9648C167.814 57.5352 167.773 57.2148 167.691 57.0039C167.609 56.7891 167.463 56.6191 167.252 56.4941C167.045 56.3652 166.801 56.3008 166.52 56.3008C166.07 56.3008 165.682 56.4434 165.354 56.7285C165.029 57.0137 164.867 57.5547 164.867 58.3516V61.75H163.812ZM172.795 60.8066L172.947 61.7383C172.65 61.8008 172.385 61.832 172.15 61.832C171.768 61.832 171.471 61.7715 171.26 61.6504C171.049 61.5293 170.9 61.3711 170.814 61.1758C170.729 60.9766 170.686 60.5605 170.686 59.9277V56.3477H169.912V55.5273H170.686V53.9863L171.734 53.3535V55.5273H172.795V56.3477H171.734V59.9863C171.734 60.2871 171.752 60.4805 171.787 60.5664C171.826 60.6523 171.887 60.7207 171.969 60.7715C172.055 60.8223 172.176 60.8477 172.332 60.8477C172.449 60.8477 172.604 60.834 172.795 60.8066ZM176.92 58.9902L177.992 58.8965C178.043 59.3262 178.16 59.6797 178.344 59.957C178.531 60.2305 178.82 60.4531 179.211 60.625C179.602 60.793 180.041 60.877 180.529 60.877C180.963 60.877 181.346 60.8125 181.678 60.6836C182.01 60.5547 182.256 60.3789 182.416 60.1562C182.58 59.9297 182.662 59.6836 182.662 59.418C182.662 59.1484 182.584 58.9141 182.428 58.7148C182.271 58.5117 182.014 58.3418 181.654 58.2051C181.424 58.1152 180.914 57.9766 180.125 57.7891C179.336 57.5977 178.783 57.418 178.467 57.25C178.057 57.0352 177.75 56.7695 177.547 56.4531C177.348 56.1328 177.248 55.7754 177.248 55.3809C177.248 54.9473 177.371 54.543 177.617 54.168C177.863 53.7891 178.223 53.502 178.695 53.3066C179.168 53.1113 179.693 53.0137 180.271 53.0137C180.908 53.0137 181.469 53.1172 181.953 53.3242C182.441 53.5273 182.816 53.8281 183.078 54.2266C183.34 54.625 183.48 55.0762 183.5 55.5801L182.41 55.6621C182.352 55.1191 182.152 54.709 181.812 54.4316C181.477 54.1543 180.979 54.0156 180.318 54.0156C179.631 54.0156 179.129 54.1426 178.812 54.3965C178.5 54.6465 178.344 54.9492 178.344 55.3047C178.344 55.6133 178.455 55.8672 178.678 56.0664C178.896 56.2656 179.467 56.4707 180.389 56.6816C181.314 56.8887 181.949 57.0703 182.293 57.2266C182.793 57.457 183.162 57.75 183.4 58.1055C183.639 58.457 183.758 58.8633 183.758 59.3242C183.758 59.7812 183.627 60.2129 183.365 60.6191C183.104 61.0215 182.727 61.3359 182.234 61.5625C181.746 61.7852 181.195 61.8965 180.582 61.8965C179.805 61.8965 179.152 61.7832 178.625 61.5566C178.102 61.3301 177.689 60.9902 177.389 60.5371C177.092 60.0801 176.936 59.5645 176.92 58.9902ZM185.129 64.1465L185.012 63.1562C185.242 63.2188 185.443 63.25 185.615 63.25C185.85 63.25 186.037 63.2109 186.178 63.1328C186.318 63.0547 186.434 62.9453 186.523 62.8047C186.59 62.6992 186.697 62.4375 186.846 62.0195C186.865 61.9609 186.896 61.875 186.939 61.7617L184.578 55.5273H185.715L187.01 59.1309C187.178 59.5879 187.328 60.0684 187.461 60.5723C187.582 60.0879 187.727 59.6152 187.895 59.1543L189.225 55.5273H190.279L187.912 61.8555C187.658 62.5391 187.461 63.0098 187.32 63.2676C187.133 63.6152 186.918 63.8691 186.676 64.0293C186.434 64.1934 186.145 64.2754 185.809 64.2754C185.605 64.2754 185.379 64.2324 185.129 64.1465ZM190.754 59.8926L191.797 59.7285C191.855 60.1465 192.018 60.4668 192.283 60.6895C192.553 60.9121 192.928 61.0234 193.408 61.0234C193.893 61.0234 194.252 60.9258 194.486 60.7305C194.721 60.5312 194.838 60.2988 194.838 60.0332C194.838 59.7949 194.734 59.6074 194.527 59.4707C194.383 59.377 194.023 59.2578 193.449 59.1133C192.676 58.918 192.139 58.75 191.838 58.6094C191.541 58.4648 191.314 58.2676 191.158 58.0176C191.006 57.7637 190.93 57.4844 190.93 57.1797C190.93 56.9023 190.992 56.6465 191.117 56.4121C191.246 56.1738 191.42 55.9766 191.639 55.8203C191.803 55.6992 192.025 55.5977 192.307 55.5156C192.592 55.4297 192.896 55.3867 193.221 55.3867C193.709 55.3867 194.137 55.457 194.504 55.5977C194.875 55.7383 195.148 55.9297 195.324 56.1719C195.5 56.4102 195.621 56.7305 195.688 57.1328L194.656 57.2734C194.609 56.9531 194.473 56.7031 194.246 56.5234C194.023 56.3438 193.707 56.2539 193.297 56.2539C192.812 56.2539 192.467 56.334 192.26 56.4941C192.053 56.6543 191.949 56.8418 191.949 57.0566C191.949 57.1934 191.992 57.3164 192.078 57.4258C192.164 57.5391 192.299 57.6328 192.482 57.707C192.588 57.7461 192.898 57.8359 193.414 57.9766C194.16 58.1758 194.68 58.3398 194.973 58.4688C195.27 58.5938 195.502 58.7773 195.67 59.0195C195.838 59.2617 195.922 59.5625 195.922 59.9219C195.922 60.2734 195.818 60.6055 195.611 60.918C195.408 61.2266 195.113 61.4668 194.727 61.6387C194.34 61.8066 193.902 61.8906 193.414 61.8906C192.605 61.8906 191.988 61.7227 191.562 61.3867C191.141 61.0508 190.871 60.5527 190.754 59.8926ZM199.479 60.8066L199.631 61.7383C199.334 61.8008 199.068 61.832 198.834 61.832C198.451 61.832 198.154 61.7715 197.943 61.6504C197.732 61.5293 197.584 61.3711 197.498 61.1758C197.412 60.9766 197.369 60.5605 197.369 59.9277V56.3477H196.596V55.5273H197.369V53.9863L198.418 53.3535V55.5273H199.479V56.3477H198.418V59.9863C198.418 60.2871 198.436 60.4805 198.471 60.5664C198.51 60.6523 198.57 60.7207 198.652 60.7715C198.738 60.8223 198.859 60.8477 199.016 60.8477C199.133 60.8477 199.287 60.834 199.479 60.8066ZM204.775 59.7461L205.865 59.8809C205.693 60.5176 205.375 61.0117 204.91 61.3633C204.445 61.7148 203.852 61.8906 203.129 61.8906C202.219 61.8906 201.496 61.6113 200.961 61.0527C200.43 60.4902 200.164 59.7031 200.164 58.6914C200.164 57.6445 200.434 56.832 200.973 56.2539C201.512 55.6758 202.211 55.3867 203.07 55.3867C203.902 55.3867 204.582 55.6699 205.109 56.2363C205.637 56.8027 205.9 57.5996 205.9 58.627C205.9 58.6895 205.898 58.7832 205.895 58.9082H201.254C201.293 59.5918 201.486 60.1152 201.834 60.4785C202.182 60.8418 202.615 61.0234 203.135 61.0234C203.521 61.0234 203.852 60.9219 204.125 60.7188C204.398 60.5156 204.615 60.1914 204.775 59.7461ZM201.312 58.041H204.787C204.74 57.5176 204.607 57.125 204.389 56.8633C204.053 56.457 203.617 56.2539 203.082 56.2539C202.598 56.2539 202.189 56.416 201.857 56.7402C201.529 57.0645 201.348 57.498 201.312 58.041ZM207.195 61.75V55.5273H208.139V56.4004C208.334 56.0957 208.594 55.8516 208.918 55.668C209.242 55.4805 209.611 55.3867 210.025 55.3867C210.486 55.3867 210.863 55.4824 211.156 55.6738C211.453 55.8652 211.662 56.1328 211.783 56.4766C212.275 55.75 212.916 55.3867 213.705 55.3867C214.322 55.3867 214.797 55.5586 215.129 55.9023C215.461 56.2422 215.627 56.7676 215.627 57.4785V61.75H214.578V57.8301C214.578 57.4082 214.543 57.1055 214.473 56.9219C214.406 56.7344 214.283 56.584 214.104 56.4707C213.924 56.3574 213.713 56.3008 213.471 56.3008C213.033 56.3008 212.67 56.4473 212.381 56.7402C212.092 57.0293 211.947 57.4941 211.947 58.1348V61.75H210.893V57.707C210.893 57.2383 210.807 56.8867 210.635 56.6523C210.463 56.418 210.182 56.3008 209.791 56.3008C209.494 56.3008 209.219 56.3789 208.965 56.5352C208.715 56.6914 208.533 56.9199 208.42 57.2207C208.307 57.5215 208.25 57.9551 208.25 58.5215V61.75H207.195Z" fill="#50ABD4"/>
<path d="M82.8407 39.57L87.6007 40.16C86.8507 42.94 85.4607 45.09 83.4307 46.63C81.4007 48.16 78.8107 48.93 75.6607 48.93C71.6907 48.93 68.5407 47.71 66.2107 45.26C63.8807 42.81 62.7207 39.38 62.7207 34.97C62.7207 30.56 63.9007 26.86 66.2507 24.33C68.6007 21.81 71.6507 20.55 75.4007 20.55C79.1507 20.55 82.0007 21.79 84.3007 24.26C86.6007 26.73 87.7507 30.21 87.7507 34.69C87.7507 34.96 87.7507 35.37 87.7207 35.92H67.4707C67.6407 38.9 68.4807 41.19 70.0007 42.77C71.5207 44.36 73.4107 45.15 75.6807 45.15C77.3707 45.15 78.8107 44.71 80.0007 43.82C81.1907 42.93 82.1407 41.52 82.8407 39.58V39.57ZM67.7307 32.13H82.8907C82.6907 29.85 82.1107 28.13 81.1507 26.99C79.6807 25.22 77.7807 24.33 75.4507 24.33C73.3407 24.33 71.5607 25.04 70.1207 26.45C68.6807 27.87 67.8807 29.76 67.7307 32.13Z" fill="#00C39C"/>
<path d="M95 48.32V21.16H99.14V25.02C101.13 22.04 104.01 20.55 107.78 20.55C109.42 20.55 110.92 20.84 112.29 21.43C113.66 22.02 114.69 22.79 115.37 23.74C116.05 24.69 116.53 25.83 116.8 27.14C116.97 27.99 117.06 29.48 117.06 31.61V48.31H112.46V31.79C112.46 29.92 112.28 28.51 111.92 27.58C111.56 26.65 110.93 25.91 110.02 25.36C109.11 24.81 108.04 24.53 106.81 24.53C104.85 24.53 103.16 25.15 101.73 26.4C100.31 27.64 99.6 30.01 99.6 33.48V48.31H95V48.32Z" fill="#FFCD01"/>
<path d="M176.751 39.57L181.511 40.16C180.761 42.94 179.371 45.09 177.341 46.63C175.311 48.16 172.721 48.93 169.571 48.93C165.601 48.93 162.451 47.71 160.121 45.26C157.791 42.81 156.631 39.38 156.631 34.97C156.631 30.56 157.811 26.86 160.161 24.33C162.511 21.81 165.561 20.55 169.311 20.55C173.061 20.55 175.911 21.79 178.211 24.26C180.511 26.73 181.661 30.21 181.661 34.69C181.661 34.96 181.661 35.37 181.631 35.92H161.381C161.551 38.9 162.391 41.19 163.911 42.77C165.431 44.36 167.321 45.15 169.591 45.15C171.281 45.15 172.721 44.71 173.911 43.82C175.101 42.93 176.051 41.52 176.751 39.58V39.57ZM161.641 32.13H176.801C176.601 29.85 176.021 28.13 175.061 26.99C173.591 25.22 171.691 24.33 169.361 24.33C167.251 24.33 165.471 25.04 164.031 26.45C162.591 27.87 161.791 29.76 161.641 32.13Z" fill="#00C39C"/>
<path d="M152.709 17.5682C154.392 15.8853 154.722 13.4857 153.445 12.2084C152.168 10.9312 149.769 11.26 148.085 12.9429C146.402 14.6258 146.072 17.0254 147.349 18.3026C148.626 19.5799 151.025 19.251 152.709 17.5682Z" fill="#E74C3C"/>
<mask id="mask0_1961_13315" style="mask-type:luminance" maskUnits="userSpaceOnUse" x="146" y="11" width="9" height="9">
<path d="M152.709 17.5682C154.392 15.8853 154.722 13.4857 153.445 12.2085C152.168 10.9312 149.769 11.2601 148.085 12.9429C146.402 14.6258 146.072 17.0254 147.349 18.3027C148.626 19.5799 151.025 19.2511 152.709 17.5682Z" fill="white"/>
</mask>
<g mask="url(#mask0_1961_13315)">
<path d="M147.15 18.61L156.15 19.39V16.85H147.15V18.61Z" fill="#E74C3C"/>
<path d="M147.15 18.22L156.15 19V19.39L147.15 18.61V18.22Z" fill="#E74C3C"/>
<path d="M147.15 17.83L156.15 18.61V19L147.15 18.22V17.83Z" fill="#E74C3C"/>
<path d="M147.15 17.44L156.15 18.22V18.61L147.15 17.83V17.44Z" fill="#E74C3C"/>
<path d="M147.15 17.05L156.15 17.83V18.22L147.15 17.44V17.05Z" fill="#E74C3C"/>
<path d="M147.15 16.66L156.15 17.44V17.83L147.15 17.05V16.66Z" fill="#E74C3C"/>
<path d="M147.15 16.27L156.15 17.05V17.44L147.15 16.66V16.27Z" fill="#E74C3C"/>
<path d="M147.15 15.88L156.15 16.66V17.05L147.15 16.27V15.88Z" fill="#E74C3C"/>
<path d="M147.15 15.49L156.15 16.27V16.66L147.15 15.88V15.49Z" fill="#E74C3C"/>
<path d="M147.15 15.1L156.15 15.88V16.27L147.15 15.49V15.1Z" fill="#E74C3C"/>
<path d="M147.15 14.7L156.15 15.48V15.88L147.15 15.1V14.7Z" fill="#E74C3C"/>
<path d="M147.15 14.31L156.15 15.09V15.48L147.15 14.7V14.31Z" fill="#E74C3C"/>
<path d="M147.15 13.92L156.15 14.7V15.09L147.15 14.31V13.92Z" fill="#E74C3C"/>
<path d="M147.15 13.53L156.15 14.31V14.7L147.15 13.92V13.53Z" fill="#E74C3C"/>
<path d="M147.15 13.14L156.15 13.92V14.31L147.15 13.53V13.14Z" fill="#E74C3C"/>
<path d="M147.15 12.75L156.15 13.53V13.92L147.15 13.14V12.75Z" fill="#E74C3C"/>
<path d="M147.15 12.36L156.15 13.14V13.53L147.15 12.75V12.36Z" fill="#E74C3C"/>
<path d="M147.15 11.97L156.15 12.75V13.14L147.15 12.36V11.97Z" fill="#E74C3C"/>
<path d="M147.15 11.58L156.15 12.36V12.75L147.15 11.97V11.58Z" fill="#E74C3C"/>
<path d="M147.15 11.19L156.15 11.97V12.36L147.15 11.58V11.19Z" fill="#E74C3C"/>
<path d="M156.15 11.97L147.15 11.19V9.85001H156.15V11.97Z" fill="#E74C3C"/>
</g>
<path d="M150.931 33.38C148.511 34.51 142.901 39.75 140.591 41.58C137.481 44.04 127.231 49.2 133.321 41.68C139.411 34.17 148.451 21.85 148.451 21.85H139.931L126.921 37.51C126.921 37.51 122.431 43.76 125.181 46.55C127.931 49.34 132.271 48.04 133.751 47.41C135.581 46.63 140.061 44.01 141.561 42.77C143.121 41.48 150.941 33.38 150.941 33.38H150.931Z" fill="#50ABD4"/>
<path d="M28.66 60.02C14.21 60.02 2 47.37 2 32.39C2 25.28 4.78 18.63 9.83 13.66C14.86 8.72 21.55 6 28.68 6C37.24 6 45.47 10.53 50.69 18.11L46.67 20.88C42.42 14.71 35.53 10.88 28.67 10.88C22.82 10.88 17.34 13.1 13.24 17.14C9.13 21.18 6.86 26.6 6.86 32.39C6.86 44.73 16.83 55.19 28.64 55.19C40.45 55.19 49.05 46.85 50.28 36.85H29.14V31.85H55.14V34.33C55.14 41.32 52.43 47.83 47.37 52.65C42.37 57.41 35.77 60.03 28.64 60.03L28.66 60.02Z" fill="white"/>
</svg>
