<svg width="1230" height="95" viewBox="0 0 1230 95" fill="none" xmlns="http://www.w3.org/2000/svg">
<rect width="1230" height="95" fill="white"/>
<path fill-rule="evenodd" clip-rule="evenodd" d="M26.0001 21.7285L32.9386 27.6758L31.3116 29.5739L26.0001 25.0212L20.6886 29.5739L19.0616 27.6758L26.0001 21.7285Z" fill="#22354A"/>
<path fill-rule="evenodd" clip-rule="evenodd" d="M66.0001 30.2711L59.0616 24.3239L60.6886 22.4257L66.0001 26.9785L71.3117 22.4257L72.9386 24.3239L66.0001 30.2711Z" fill="#22354A"/>
<path fill-rule="evenodd" clip-rule="evenodd" d="M101.729 25.9999L107.676 32.9384L109.574 31.3114L105.021 25.9999L109.574 20.6884L107.676 19.0614L101.729 25.9999Z" fill="#22354A"/>
<path fill-rule="evenodd" clip-rule="evenodd" d="M150.272 25.9998L144.325 32.9383L142.426 31.3113L146.979 25.9998L142.426 20.6883L144.325 19.0613L150.272 25.9998Z" fill="#22354A"/>
<path fill-rule="evenodd" clip-rule="evenodd" d="M186.728 25.9998L192.675 32.9383L194.573 31.3113L190.021 25.9998L194.573 20.6883L192.675 19.0613L186.728 25.9998Z" fill="#22354A"/>
<path fill-rule="evenodd" clip-rule="evenodd" d="M177.978 25.9998L183.925 32.9383L185.823 31.3113L181.271 25.9998L185.823 20.6883L183.925 19.0613L177.978 25.9998Z" fill="#22354A"/>
<path d="M219.325 32.9384L225.272 25.9999L219.325 19.0614L217.427 20.6883L221.98 25.9999L217.427 31.3114L219.325 32.9384Z" fill="#22354A"/>
<path d="M228.075 32.9384L234.022 25.9999L228.075 19.0614L226.177 20.6883L230.73 25.9999L226.177 31.3114L228.075 32.9384Z" fill="#22354A"/>
<path fill-rule="evenodd" clip-rule="evenodd" d="M273.155 21.8621L263.877 31.6047L258.808 25.7994L260.692 24.1552L263.957 27.8953L271.345 20.1379L273.155 21.8621Z" fill="#22354A"/>
<path d="M305.911 30.375L299.879 21.9375L311.942 21.9375L305.911 30.375Z" fill="#22354A"/>
<path d="M345.911 21.625L339.879 30.0625L351.942 30.0625L345.911 21.625Z" fill="#22354A"/>
<path d="M380.286 26L388.723 32.0313L388.723 19.9688L380.286 26Z" fill="#22354A"/>
<path d="M431.536 26L423.098 19.9687L423.098 32.0312L431.536 26Z" fill="#22354A"/>
<path d="M463.143 25.9999L471.58 19.9687L471.58 32.0312L463.143 25.9999Z" fill="#22354A"/>
<path fill-rule="evenodd" clip-rule="evenodd" d="M460.375 32.2501V19.7501H461.625V32.2501H460.375Z" fill="#22354A"/>
<path d="M508.857 25.9998L500.42 19.9686L500.42 32.0311L508.857 25.9998Z" fill="#22354A"/>
<path fill-rule="evenodd" clip-rule="evenodd" d="M511.625 32.2499V19.7499H510.375V32.2499H511.625Z" fill="#22354A"/>
<path fill-rule="evenodd" clip-rule="evenodd" d="M555.573 21.0667L543.227 34.0299L536.368 26.1732L539.382 23.5426L543.356 28.095L552.677 18.3081L555.573 21.0667Z" fill="#22354A"/>
<path d="M579.75 25.9167L591 33.9583L591 17.875L579.75 25.9167Z" fill="#22354A"/>
<path d="M632.25 25.9167L621 33.9583L621 17.875L632.25 25.9167Z" fill="#22354A"/>
<path d="M658.1 33.9004V26.692H660.308V30.1367L670.137 20.308H666.692V18.0996H673.9V25.308H671.692V21.8632L661.863 31.692H665.308V33.9004H658.1Z" fill="#22354A"/>
<path d="M698.81 34.7337L697.266 33.1902L702.248 28.2084H698.933V26H706V33.067H703.792V29.7519L698.81 34.7337ZM706 26V18.933H708.208V22.2482L713.19 17.2663L714.734 18.8098L709.752 23.7917H713.067V26H706Z" fill="#22354A"/>
<path d="M746.486 16V19.871H745.514V16H746.486Z" fill="#22354A"/>
<path d="M750.839 26.0003C750.839 28.6727 748.672 30.8391 746 30.8391C743.328 30.8391 741.161 28.6727 741.161 26.0003C741.161 23.3279 743.328 21.1615 746 21.1615C748.672 21.1615 750.839 23.3279 750.839 26.0003Z" fill="#22354A"/>
<path d="M746.486 36.0003V32.1293H745.514V36.0003H746.486Z" fill="#22354A"/>
<path d="M753.92 19.5694L751.183 22.3067L750.495 21.6194L753.233 18.8822L753.92 19.5694Z" fill="#22354A"/>
<path d="M751.183 29.8503L753.92 32.5875L753.233 33.2748L750.495 30.5375L751.183 29.8503Z" fill="#22354A"/>
<path d="M738.236 19.5693L740.974 22.3066L741.661 21.6193L738.924 18.8821L738.236 19.5693Z" fill="#22354A"/>
<path d="M740.974 29.8502L738.236 32.5874L738.924 33.2746L741.661 30.5374L740.974 29.8502Z" fill="#22354A"/>
<path d="M756 26.1634H752.129V25.1915L756 25.1915V26.1634Z" fill="#22354A"/>
<path d="M736 26.1634H739.871V25.1915L736 25.1915L736 26.1634Z" fill="#22354A"/>
<path d="M794 28.9503C793.384 29.0927 792.741 29.168 792.08 29.168C787.493 29.168 783.775 25.5376 783.775 21.0591C783.775 19.9768 783.992 18.944 784.386 18C780.725 18.8459 778 22.0579 778 25.8912C778 30.3696 781.719 34.0001 786.306 34.0001C789.784 34.0001 792.763 31.9123 794 28.9503Z" fill="#22354A"/>
<path d="M828.667 19.8664L834 17.7997V32.178L828.667 34.0003V19.8664Z" fill="#22354A"/>
<path fill-rule="evenodd" clip-rule="evenodd" d="M818 34.2L823.333 32.1334L828.667 34.0003V19.8664L823.333 17.9995L818 19.8217V34.2ZM827.127 31.8315V20.9577L824.871 20.1679V31.0418L827.127 31.8315Z" fill="#22354A"/>
<path d="M25.375 68.6251V75.0001H26.625V68.6251H33.0003V67.3751L26.625 67.3751V61.0001H25.375V67.3751L19.0003 67.3751V68.6251H25.375Z" fill="#22354A"/>
<path fill-rule="evenodd" clip-rule="evenodd" d="M59.0002 67.3751L73.0002 67.3751L73.0002 68.6251L59.0002 68.6251L59.0002 67.3751Z" fill="#22354A"/>
<path fill-rule="evenodd" clip-rule="evenodd" d="M111.292 62.3649L108.422 60.7075L102.01 71.8137L102.478 74.3168L104.88 73.471L111.292 62.3649ZM105.732 74.4964L101.518 75.9802L100.696 71.5891L107.964 59L113 61.9073L105.732 74.4964Z" fill="#22354A"/>
<path fill-rule="evenodd" clip-rule="evenodd" d="M110.572 65.1439L106.375 62.7211L107 61.6385L111.197 64.0613L110.572 65.1439Z" fill="#22354A"/>
<path d="M146 68.8839L151.808 74.6919L152.692 73.8081L146.884 68L152.692 62.1919L151.808 61.3081L146 67.1161L140.192 61.3081L139.308 62.1919L145.116 68L139.308 73.8081L140.192 74.6919L146 68.8839Z" fill="#22354A"/>
<path fill-rule="evenodd" clip-rule="evenodd" d="M183.355 74.4583L185.77 73.608L192.02 62.7827L187.689 60.2827L181.439 71.108L182.067 74.4583H180.167V75.7083H193.5V74.4583H183.355ZM190.312 63.2402L188.147 61.9902L187.626 62.8925L189.791 64.1425L190.312 63.2402ZM182.753 71.3326L187.001 63.9751L189.166 65.2251L184.918 72.5826L183.107 73.2205L182.753 71.3326Z" fill="#22354A"/>
<path d="M218.708 59.875V76.125H225.911V74.875H219.958V61.125H229.542V68H230.792V59.875H218.708Z" fill="#22354A"/>
<path fill-rule="evenodd" clip-rule="evenodd" d="M230.717 76.1061L228.286 76.962L227.812 74.4289L232.005 67.1667L234.909 68.8438L230.717 76.1061ZM233.202 69.3013L232.462 68.8742L232.066 69.5604L232.806 69.9875L233.202 69.3013ZM229.125 74.6535L231.441 70.6429L232.181 71.0701L229.865 75.0806L229.246 75.2986L229.125 74.6535Z" fill="#22354A"/>
<path d="M226.833 65.2917H221.833V64.0417H226.833V65.2917Z" fill="#22354A"/>
<path d="M221.833 67.7917H225.167V66.5417H221.833V67.7917Z" fill="#22354A"/>
<path d="M258.708 59.875H270.792V66.3333H269.542V61.125H259.958V74.875H264.75V76.125H258.708V59.875Z" fill="#22354A"/>
<path d="M270.167 74.6667C271.547 74.6667 272.667 73.5474 272.667 72.1667C272.667 70.786 271.547 69.6667 270.167 69.6667C268.786 69.6667 267.667 70.786 267.667 72.1667C267.667 73.5474 268.786 74.6667 270.167 74.6667Z" fill="#22354A"/>
<path fill-rule="evenodd" clip-rule="evenodd" d="M270.167 76.3333C272.468 76.3333 275.583 74.4679 275.583 72.1667C275.583 69.8655 272.468 68 270.167 68C267.865 68 264.75 69.8655 264.75 72.1667C264.75 74.4679 267.865 76.3333 270.167 76.3333ZM273.016 74.0923C273.927 73.4483 274.333 72.7357 274.333 72.1667C274.333 71.5976 273.927 70.885 273.016 70.2411C272.128 69.613 271.021 69.25 270.167 69.25C269.312 69.25 268.205 69.613 267.317 70.2411C266.406 70.885 266 71.5976 266 72.1667C266 72.7357 266.406 73.4483 267.317 74.0923C268.205 74.7203 269.312 75.0833 270.167 75.0833C271.021 75.0833 272.128 74.7203 273.016 74.0923Z" fill="#22354A"/>
<path d="M266.833 65.2917H261.833V64.0417H266.833V65.2917Z" fill="#22354A"/>
<path d="M261.833 67.7917H265.167V66.5417H261.833V67.7917Z" fill="#22354A"/>
<path d="M305.375 70.5805L305.375 60.5266H306.625L306.625 70.3881L310.367 66.7958L311.233 67.6976L305.9 72.8171L300.567 67.6976L301.433 66.7958L305.375 70.5805Z" fill="#22354A"/>
<path d="M312.667 75.7116H299.333V74.4616H312.667V75.7116Z" fill="#22354A"/>
<path d="M339.333 59.9016H352.667V61.1517L339.333 61.1516V59.9016Z" fill="#22354A"/>
<path d="M346.625 65.0327L346.625 75.0866H345.375L345.375 65.2251L341.633 68.8174L340.767 67.9157L346.1 62.7962L351.433 67.9157L350.567 68.8174L346.625 65.0327Z" fill="#22354A"/>
<path d="M382.667 67.7917H387.667V66.5417H382.667V67.7917Z" fill="#22354A"/>
<path d="M386 70.2917H382.667V69.0417H386V70.2917Z" fill="#22354A"/>
<path fill-rule="evenodd" clip-rule="evenodd" d="M382.667 60.5H389.333V61.5417H392.458V76.125H379.542V61.5417H382.667V60.5ZM383.917 61.75H388.083V62.5833H383.917V61.75ZM382.667 62.7917H380.792V74.875H391.208V62.7917H389.333V63.8333H382.667V62.7917Z" fill="#22354A"/>
<path d="M422.667 66.125H429.333V64.875H422.667V66.125Z" fill="#22354A"/>
<path fill-rule="evenodd" clip-rule="evenodd" d="M417.667 61.3333H434.333V73.8333H417.667V61.3333ZM418.917 62.5833H433.083V72.5833H418.917V62.5833Z" fill="#22354A"/>
<path fill-rule="evenodd" clip-rule="evenodd" d="M473.083 62.5833H458.917V72.5833H473.083V62.5833ZM457.667 61.3333V73.8333H474.333V61.3333H457.667Z" fill="#22354A"/>
<path fill-rule="evenodd" clip-rule="evenodd" d="M458.153 63.1031L458.847 62.063L465.99 66.8251L472.723 62.0724L473.444 63.0936L466.01 68.3409L458.153 63.1031Z" fill="#22354A"/>
<path fill-rule="evenodd" clip-rule="evenodd" d="M497.875 64.0417H514.125V72.7917H510.583V71.5417H512.875V65.2917H499.125V71.5417H501.833V72.7917H497.875V64.0417Z" fill="#22354A"/>
<path fill-rule="evenodd" clip-rule="evenodd" d="M501.208 60.7083H510.792V65.2917H501.208V60.7083ZM502.458 61.9583V64.0417H509.542V61.9583H502.458Z" fill="#22354A"/>
<path fill-rule="evenodd" clip-rule="evenodd" d="M501.208 69.875H510.792V76.125H501.208V69.875ZM502.458 71.125V74.875H509.542V71.125H502.458Z" fill="#22354A"/>
<path d="M511 67.5833C511 68.2737 510.44 68.8333 509.75 68.8333C509.06 68.8333 508.5 68.2737 508.5 67.5833C508.5 66.893 509.06 66.3333 509.75 66.3333C510.44 66.3333 511 66.893 511 67.5833Z" fill="#22354A"/>
<path fill-rule="evenodd" clip-rule="evenodd" d="M545.167 70.5L545.167 61.3333L546.833 61.3333L546.833 70.5H545.167Z" fill="#22354A"/>
<path fill-rule="evenodd" clip-rule="evenodd" d="M545.167 74.6667L545.167 72.1667H546.833L546.833 74.6667H545.167Z" fill="#22354A"/>
<path d="M585.133 70.9397C585.133 70.3653 585.286 69.8641 585.592 69.4364C585.897 68.9964 586.349 68.4953 586.948 67.933C587.535 67.383 587.975 66.9064 588.268 66.503C588.562 66.0875 588.708 65.6108 588.708 65.073C588.708 64.3519 588.47 63.7958 587.993 63.4047C587.517 63.0136 586.893 62.818 586.123 62.818C585.488 62.818 584.968 62.9525 584.565 63.2214C584.162 63.4903 583.868 63.8264 583.685 64.2297C583.514 64.633 583.428 65.0425 583.428 65.458V65.5314H581.833V65.458C581.833 64.6636 582.004 63.9547 582.347 63.3314C582.701 62.708 583.202 62.2191 583.85 61.8647C584.498 61.5103 585.256 61.333 586.123 61.333C586.967 61.333 587.7 61.4919 588.323 61.8097C588.959 62.1275 589.448 62.5675 589.79 63.1297C590.132 63.6797 590.303 64.303 590.303 64.9997C590.303 65.5008 590.206 65.9591 590.01 66.3747C589.827 66.7903 589.594 67.1508 589.313 67.4564C589.044 67.7619 588.69 68.1225 588.25 68.538C587.724 69.0269 587.333 69.4425 587.077 69.7847C586.82 70.1269 586.692 70.5119 586.692 70.9397V71.0864H585.133V70.9397ZM585.922 74.6247C585.628 74.6247 585.384 74.5269 585.188 74.3314C585.005 74.1358 584.913 73.8914 584.913 73.598C584.913 73.3169 585.005 73.0786 585.188 72.883C585.384 72.6875 585.628 72.5897 585.922 72.5897C586.203 72.5897 586.441 72.6875 586.637 72.883C586.832 73.0786 586.93 73.3169 586.93 73.598C586.93 73.8791 586.832 74.1236 586.637 74.3314C586.441 74.5269 586.203 74.6247 585.922 74.6247Z" fill="#22354A"/>
<path d="M625.35 69.183H623.267V73.833H621.833V62.1664H625.8C626.744 62.1664 627.517 62.3386 628.117 62.683C628.728 63.0275 629.167 63.4664 629.433 63.9997C629.7 64.533 629.833 65.0941 629.833 65.683C629.833 66.4941 629.589 67.2219 629.1 67.8664C628.622 68.5108 627.872 68.9219 626.85 69.0997L629.933 73.833H628.35L625.35 69.183ZM623.267 67.9497H625.617C626.406 67.9497 627.072 67.7775 627.617 67.433C628.161 67.0886 628.433 66.5052 628.433 65.683C628.433 64.8719 628.161 64.2997 627.617 63.9664C627.072 63.633 626.406 63.4664 625.617 63.4664H623.267V67.9497Z" fill="#22354A"/>
<path d="M661.884 71.3747C660.941 71.3747 660.141 71.0477 659.484 70.3939C658.828 69.74 658.5 68.9432 658.5 68.0033C658.5 67.0634 658.828 66.2653 659.484 65.609C660.141 64.9528 660.941 64.6247 661.884 64.6247C662.263 64.6247 662.628 64.6898 662.977 64.82C663.326 64.9502 663.641 65.1403 663.922 65.3903L665.156 66.4997L664.312 67.2497L663.187 66.234C663.01 66.0778 662.813 65.958 662.595 65.8747C662.378 65.7913 662.149 65.7497 661.91 65.7497C661.279 65.7497 660.74 65.9689 660.294 66.4073C659.848 66.8457 659.625 67.3769 659.625 68.001C659.625 68.6251 659.848 69.1585 660.294 69.6012C660.74 70.0439 661.279 70.2653 661.91 70.2653C662.149 70.2653 662.378 70.2236 662.595 70.1403C662.813 70.0569 663.01 69.9372 663.187 69.7809L668.078 65.3903C668.359 65.1507 668.674 64.9632 669.023 64.8278C669.372 64.6924 669.736 64.6247 670.115 64.6247C671.059 64.6247 671.859 64.9525 672.515 65.6082C673.172 66.2639 673.5 67.0611 673.5 67.9997C673.5 68.9476 673.17 69.7471 672.509 70.3981C671.848 71.0491 671.043 71.3747 670.094 71.3747C669.716 71.3747 669.353 71.3096 669.005 71.1793C668.658 71.0491 668.344 70.859 668.062 70.609L666.812 69.484L667.687 68.7497L668.812 69.7653C668.99 69.9215 669.187 70.0413 669.405 70.1247C669.622 70.208 669.851 70.2497 670.09 70.2497C670.721 70.2497 671.26 70.0304 671.706 69.592C672.152 69.1536 672.375 68.6224 672.375 67.9983C672.375 67.3742 672.152 66.8408 671.706 66.3981C671.26 65.9554 670.721 65.734 670.09 65.734C669.851 65.734 669.622 65.7757 669.405 65.859C669.187 65.9424 668.99 66.0622 668.812 66.2184L663.926 70.6078C663.642 70.8586 663.326 71.0491 662.977 71.1793C662.628 71.3096 662.264 71.3747 661.884 71.3747Z" fill="#22354A"/>
<path fill-rule="evenodd" clip-rule="evenodd" d="M661.884 64.7497C660.973 64.7497 660.205 65.065 659.573 65.6974C658.94 66.3299 658.625 67.096 658.625 68.0033C658.625 68.9105 658.94 69.6753 659.573 70.3053C660.205 70.9354 660.973 71.2497 661.884 71.2497C662.249 71.2497 662.599 71.1871 662.933 71.0622C663.267 70.9375 663.57 70.7552 663.842 70.5144C663.843 70.5143 663.842 70.5145 663.842 70.5144L668.729 66.1254L668.73 66.1247C668.918 65.9587 669.128 65.831 669.36 65.7423C669.592 65.6534 669.836 65.609 670.09 65.609C670.754 65.609 671.324 65.8433 671.794 66.3094C672.263 66.7754 672.5 67.3406 672.5 67.9983C672.5 68.656 672.263 69.2193 671.793 69.6812C671.324 70.1428 670.754 70.3747 670.09 70.3747C669.836 70.3747 669.592 70.3303 669.36 70.2414C669.128 70.1526 668.918 70.025 668.73 69.859L668.729 69.8581L667.685 68.9154L667.003 69.4873L668.146 70.5156C668.146 70.5157 668.145 70.5155 668.146 70.5156C668.415 70.7554 668.717 70.9376 669.049 71.0623C669.382 71.1871 669.73 71.2497 670.094 71.2497C671.011 71.2497 671.785 70.9364 672.421 70.3091C673.058 69.6821 673.375 68.9149 673.375 67.9997C673.375 67.0938 673.06 66.3286 672.427 65.6967C671.795 65.0648 671.026 64.7497 670.115 64.7497C669.751 64.7497 669.402 64.8146 669.068 64.9443C668.733 65.0745 668.431 65.2545 668.16 65.4844L663.27 69.8746C663.082 70.0406 662.872 70.1683 662.64 70.257C662.408 70.346 662.164 70.3903 661.91 70.3903C661.246 70.3903 660.676 70.156 660.206 69.6899C659.737 69.224 659.5 68.6587 659.5 68.001C659.5 67.3433 659.737 66.78 660.207 66.3181C660.676 65.8565 661.246 65.6247 661.91 65.6247C662.164 65.6247 662.408 65.669 662.64 65.7579C662.872 65.8467 663.082 65.9743 663.27 66.1403L663.271 66.1412L664.313 67.0818L664.969 66.4991L663.839 65.4837C663.839 65.4836 663.839 65.4838 663.839 65.4837C663.569 65.244 663.267 65.0618 662.933 64.9371C662.598 64.8122 662.249 64.7497 661.884 64.7497ZM659.396 65.5206C660.076 64.8405 660.908 64.4997 661.884 64.4997C662.278 64.4997 662.657 64.5673 663.02 64.7029C663.384 64.8385 663.712 65.0367 664.005 65.2969L665.344 66.5002L664.312 67.4175L663.104 66.3273C662.938 66.181 662.754 66.0692 662.551 65.9914C662.348 65.9137 662.134 65.8747 661.91 65.8747C661.311 65.8747 660.804 66.0812 660.382 66.4964C659.96 66.9114 659.75 67.4106 659.75 68.001C659.75 68.5915 659.96 69.0931 660.382 69.5125C660.805 69.9319 661.312 70.1403 661.91 70.1403C662.134 70.1403 662.348 70.1013 662.551 70.0235C662.754 69.9457 662.938 69.8339 663.104 69.6875C663.105 69.6874 663.104 69.6876 663.104 69.6875L667.997 65.2951C668.289 65.0463 668.616 64.8517 668.978 64.7113C669.341 64.5702 669.721 64.4997 670.115 64.4997C671.091 64.4997 671.923 64.8402 672.604 65.5198C673.284 66.1993 673.625 67.0283 673.625 67.9997C673.625 68.9802 673.282 69.812 672.597 70.4871C671.912 71.1618 671.075 71.4997 670.094 71.4997C669.701 71.4997 669.323 71.432 668.962 71.2964C668.6 71.1607 668.272 70.9625 667.979 70.7025L666.622 69.4807L667.69 68.584L668.895 69.6716C668.895 69.6717 668.895 69.6714 668.895 69.6716C669.061 69.8178 669.246 69.9301 669.449 70.0079C669.652 70.0856 669.866 70.1247 670.09 70.1247C670.689 70.1247 671.196 69.9181 671.618 69.5029C672.04 69.0879 672.25 68.5888 672.25 67.9983C672.25 67.4078 672.04 66.9062 671.618 66.4868C671.195 66.0675 670.688 65.859 670.09 65.859C669.866 65.859 669.652 65.898 669.449 65.9758C669.246 66.0536 669.062 66.1655 668.896 66.3118C668.895 66.3119 668.896 66.3117 668.896 66.3118L664.008 70.7015C663.713 70.9622 663.384 71.1608 663.021 71.2964C662.658 71.432 662.279 71.4997 661.884 71.4997C660.908 71.4997 660.076 71.1601 659.396 70.4824C658.716 69.8048 658.375 68.9759 658.375 68.0033C658.375 67.0307 658.716 66.2007 659.396 65.5206Z" fill="#22354A"/>
<path d="M709.35 72.5497V73.833H703.433V72.5497H705.8V63.883H705.733L703.4 66.083V64.3664L705.733 62.1664H707.15V72.5497H709.35Z" fill="#22354A"/>
<path d="M740.5 67C741.328 67 742 67.6716 742 68.5C742 69.3284 741.328 70 740.5 70C739.672 70 739 69.3284 739 68.5C739 67.6716 739.672 67 740.5 67Z" fill="#22354A"/>
<path d="M746.5 67C747.328 67 748 67.6716 748 68.5C748 69.3284 747.328 70 746.5 70C745.672 70 745 69.3284 745 68.5C745 67.6716 745.672 67 746.5 67Z" fill="#22354A"/>
<path d="M752.5 67C753.328 67 754 67.6716 754 68.5C754 69.3284 753.328 70 752.5 70C751.672 70 751 69.3284 751 68.5C751 67.6716 751.672 67 752.5 67Z" fill="#22354A"/>
<path d="M779.676 69.2717L786.623 62.3239C787.833 61.1146 789.793 61.1146 791.003 62.3239C792.212 63.5333 792.212 65.494 791.003 66.7033L783.512 74.1937C782.993 74.7128 782.151 74.7128 781.632 74.1937C781.113 73.6746 781.113 72.833 781.632 72.3139L787.771 66.1745L786.77 65.1726L780.63 71.312C779.558 72.3844 779.558 74.1232 780.63 75.1957C781.703 76.2681 783.441 76.2681 784.514 75.1957L792.005 67.7053C793.767 65.9426 793.767 63.0847 792.005 61.322C790.242 59.5593 787.384 59.5593 785.621 61.322L778.674 68.2698L779.676 69.2717Z" fill="#22354A"/>
<path fill-rule="evenodd" clip-rule="evenodd" d="M820 64.75H818V63.25H820V64.75ZM834 64.75H822V63.25H834V64.75ZM820 68.75H818V67.25H820V68.75ZM834 68.75H822V67.25H834V68.75ZM820 72.75H818V71.25H820V72.75ZM834 72.75H822V71.25H834V72.75Z" fill="#22354A"/>
<path fill-rule="evenodd" clip-rule="evenodd" d="M868.5 61.25H863.5V59.75H868.5V61.25ZM873.499 64.9998H858.499V63.4998H873.499V64.9998ZM861.75 74.7495V66.7496H860.25V75.4995C860.25 75.9137 860.586 76.2495 861 76.2495H871C871.414 76.2495 871.75 75.9137 871.75 75.4995V66.7496H870.25V74.7495H861.75Z" fill="#22354A"/>
</svg>
