<?xml version="1.0" encoding="UTF-8"?>
<svg width="330px" height="80px" viewBox="0 0 330 80" version="1.1" xmlns="http://www.w3.org/2000/svg" xmlns:xlink="http://www.w3.org/1999/xlink">
    <title>Artboard</title>
    <g id="Artboard" stroke="none" stroke-width="1" fill="none" fill-rule="evenodd">
        <g id="Group" transform="translate(0.283060, 0.471724)">
            <path d="M50.3626779,3.21310345 C46.8067735,6.78758621 46.1117839,11.8841379 48.8094138,14.5958621 L48.8094138,14.5958621 C51.5084159,17.3089655 56.5777922,16.6096552 60.1330105,13.0358621 L60.1330105,13.0358621 C63.6896009,9.46206897 64.3839045,4.36551724 61.6855885,1.65310345 L61.6855885,1.65310345 C60.5768982,0.53862069 59.0682288,-2.28561626e-13 57.4285199,-2.28561626e-13 L57.4285199,-2.28561626e-13 C55.0773556,-2.28561626e-13 52.4572517,1.10758621 50.3626779,3.21310345" id="Fill-35" fill="#ED3434"></path>
            <path d="M51.0871685,25.8013793 C50.785047,26.1809765 39.1564531,40.7909431 28.0025125,54.7039374 L27.1345418,55.7863945 C24.2458878,59.3881379 21.4099461,62.9166897 18.8336134,66.1103448 L18.8336134,66.1103448 L18.4573785,66.5807832 C6.3777807,81.8230028 27.4170026,69.2414069 33.9333431,64.0551724 L33.9333431,64.0551724 L34.1084273,63.9156417 C36.0132479,62.3960412 39.0997157,59.8844747 42.3556478,57.2216319 L42.9678738,56.7207814 C43.1724464,56.5533771 43.3774338,56.3855872 43.582589,56.2176168 L44.5060855,55.4612249 C50.2489521,50.7558285 55.8327194,46.1503448 55.8327194,46.1503448 L55.8327194,46.1503448 L56.3170853,26.4834483 L69.1026987,26.4834483 L69.1026987,30.7675862 C69.2388207,30.6056217 73.0161561,26.1917241 80.5312641,26.1917241 L80.5312641,26.1917241 L80.9099048,26.1978211 C88.2790537,26.4362897 91.0885199,33.5903448 91.0885199,33.5903448 L91.0885199,33.5903448 L91.0885199,58.1268966 L77.0446529,58.0289655 L77.0446529,39.3351724 L77.0422229,39.2602034 C76.9900671,38.417047 76.0882288,36.2193103 73.3645698,36.2193103 L73.3645698,36.2193103 L73.1150677,36.2274581 C70.5155834,36.3994851 69.882075,39.237931 69.882075,39.237931 L69.882075,39.237931 L69.882075,57.9317241 L55.9301415,57.9317241 L55.9301415,50.8234483 C55.7380733,50.9763056 51.2217746,54.5707821 46.452002,58.3843216 L45.842032,58.8720978 C45.6384591,59.0349208 45.4347414,59.1978917 45.2311929,59.360762 L44.6213694,59.8488221 C40.969245,62.7723862 37.4737423,65.5827586 35.9668567,66.8296552 L35.9668567,66.8296552 L35.736588,67.0176555 C32.385568,69.7192868 23.769908,75.2911307 19.9958172,76.9172414 L19.9958172,76.9172414 L19.8579809,76.9761717 C16.6039614,78.3565334 7.61223147,81.408266 1.88355104,75.5544828 L1.88355104,75.5544828 L1.70508186,75.3648116 C-3.72936398,69.3562303 5.56432027,57.2503448 5.56432027,57.2503448 L5.56432027,57.2503448 L33.0716384,25.8013793 L51.0871685,25.8013793 Z M112.686711,14.6696552 L112.971237,14.6707015 C115.512602,14.6887402 117.517508,14.9343376 117.893076,14.9832767 L117.95642,14.9917241 L117.95642,22.5372414 L117.867081,22.5373799 C116.973212,22.5422781 109.671879,22.6648276 109.62615,25.3613793 L109.62615,25.3613793 L109.63276,25.5326559 C109.889222,28.2003309 117.278582,27.4055172 117.278582,27.4055172 L117.278582,27.4055172 L117.278582,35.5358621 L111.70906,35.5358621 L111.572857,35.5464025 C110.808869,35.6705874 110.982512,36.8503448 110.982512,36.8503448 L110.982512,36.8503448 L110.982512,58.3675862 L99.0201831,58.3675862 L99.0200987,58.3301407 C99.0200709,58.3177602 99.0200362,58.3023606 99.0199949,58.2840179 L99.0191929,57.9275033 C99.0191014,57.8868323 99.0190041,57.8435223 99.0189009,57.7976494 L99.0182146,57.4922639 C99.0143264,55.7618189 99.0052485,51.7144617 98.9961706,47.6149138 L98.994415,46.8214094 C98.9865272,43.2531802 98.9788935,39.7561975 98.9749426,37.8267694 L98.9741266,37.4244191 C98.9740012,37.361864 98.9738812,37.3016112 98.9737667,37.2437368 L98.9731483,36.9256384 C98.9730568,36.8775814 98.9729713,36.8320548 98.9728919,36.7891346 L98.9721581,36.3144828 L98.9622895,36.1779353 C98.8723242,35.5841379 98.1975843,35.5841379 98.1975843,35.5841379 L93.7902662,35.5841379 L93.7902662,26.9193103 L98.8273972,26.9682759 C98.8071118,26.7457015 98.3043445,20.8726692 101.490038,17.6696552 C103.940682,15.2068966 108.859809,14.6696552 112.686711,14.6696552 L112.686711,14.6696552 Z M136.407605,24.7103448 L136.744697,24.7132549 C146.498746,24.8817947 154.350412,32.3497492 154.350412,41.537931 L154.350412,41.537931 L154.347309,41.8541214 C154.167597,51.0033687 146.204601,58.3675862 136.407605,58.3675862 L136.407605,58.3675862 L136.07049,58.3646758 C126.315779,58.1961206 118.464112,50.7274765 118.464112,41.537931 C118.464112,32.2441379 126.497314,24.7103448 136.407605,24.7103448 L136.407605,24.7103448 Z M172.62116,24.2924138 L172.995753,24.2946765 C177.380663,24.3478134 182.255251,25.3487739 185.170765,28.5524138 L185.170765,28.5524138 L185.423495,28.8433062 C186.666766,30.3401643 187.601042,32.4536207 188.077647,34.3131034 L188.077647,34.3131034 L187.671046,34.3140791 C184.709255,34.3166429 179.397418,34.2316614 176.601056,34.1868966 L176.601056,34.1868966 L176.407085,33.965144 C174.854171,32.2387785 173.263295,31.6480276 170.87511,31.6089655 L170.87511,31.6089655 L170.673783,31.61008 C168.412785,31.6715367 166.8713,33.3708571 167.597751,34.4434483 L167.597751,34.4434483 L167.727858,34.6116751 C168.435092,35.4210695 169.961264,35.7636207 170.88746,36.0558621 L170.88746,36.0558621 L172.130278,36.4295795 C175.456191,37.3822307 178.86974,38.0063602 182.222033,38.8517241 L182.222033,38.8517241 L182.473125,38.9176925 C186.472566,40.0112304 189.587086,42.9296833 189.031285,47.4993103 L189.031285,47.4993103 L188.986594,47.8196747 C188.001283,54.0697406 180.783126,57.346908 175.143842,58.1206897 L175.143842,58.1206897 L174.636199,58.1867319 C172.011179,58.5092519 170.648344,58.3625963 167.843364,58.04 L167.843364,58.04 L167.425247,57.9860285 C165.187337,57.6667629 162.834281,56.8454767 160.944923,55.5537931 L160.944923,55.5537931 L160.6747,55.3623396 C158.253713,53.5868578 156.143972,50.4183005 155.463218,47.6165517 L155.463218,47.6165517 L158.153988,47.52 L158.153988,47.52 L160.844757,47.4234483 L163.464175,47.3293103 L163.464175,47.3293103 L166.083593,47.2351724 L166.090639,47.2437419 C166.221142,47.402105 168.13563,49.7103686 169.422699,50.4062069 L169.422699,50.4062069 L169.675553,50.5346516 C171.378299,51.34322 173.411775,51.2053202 175.159622,50.6082759 L175.159622,50.6082759 L175.298746,50.5566387 C176.864734,49.9274291 178.044079,47.8224631 176.675152,46.2648276 L176.675152,46.2648276 L176.49454,46.0748295 C174.800945,44.4255735 171.306967,44.3911823 169.092699,43.9668966 L169.092699,43.9668966 L168.841303,43.918677 C164.931506,43.1679022 158.540494,41.8763463 156.847709,37.837931 L156.847709,37.837931 L156.763811,37.6223161 C155.659304,34.55668 157.479899,29.5550762 159.971389,27.5524138 L159.971389,27.5524138 L160.291659,27.3032698 C163.293749,25.0450023 166.655586,24.6443757 170.242553,24.3806897 C171.004778,24.3241379 171.803364,24.2924138 172.62116,24.2924138 L172.62116,24.2924138 Z M205.151202,15.9413793 L205.151202,26.7062069 L205.15099,26.8342074 C205.149174,27.3612075 205.135871,27.537055 205.119378,27.6948436 L205.11157,27.7675998 C205.082329,28.0385653 205.047605,28.4045735 205.047605,30.48 L205.047605,30.48 L205.051378,30.5774035 C205.197041,32.3474937 209.548578,27.6255172 215.975339,27.6255172 L215.975339,27.6255172 L216.330362,27.6293888 C223.246768,27.7812266 226.290412,32.3728621 226.290412,36.7531034 L226.290412,36.7531034 L226.290412,58.3675862 L213.408749,58.3675862 C213.412003,58.2916571 213.42893,57.8698851 213.424528,57.3565517 L213.424528,57.3565517 L213.289372,40.6462069 L213.281117,40.4677419 C213.221021,39.7591594 212.839046,39.1188329 212.243114,38.7241379 L212.243114,38.7241379 L212.13366,38.6529238 C210.532368,37.6265539 207.550188,36.3905643 205.033884,39.157931 L205.033884,39.157931 L204.909421,39.3085709 C204.637217,39.6730819 204.492917,40.1249138 204.485713,40.5841379 L204.485713,40.5841379 L204.207169,58.3675862 L191.93062,58.3675862 L191.93062,15.9413793 L205.151202,15.9413793 Z M248.707085,25.1372414 L249.217926,25.1410737 C265.889324,25.3932462 264.180038,38.0145172 264.180038,40.5441379 L264.180038,58.3675862 L254.107148,58.3675862 L254.10235,58.3568042 C254.039037,58.2147893 253.362238,56.7049918 252.857813,55.922069 L252.857813,55.922069 L252.769795,55.7964093 C251.937514,54.7077584 250.820183,55.9337931 250.820183,55.9337931 L250.820183,55.9337931 C250.715926,56.0245617 247.967527,58.362069 241.297522,58.362069 L241.297522,58.362069 L240.900976,58.3581203 C232.137656,58.1824485 229.578062,52.1921501 229.578062,49.817931 L229.578062,49.817931 L229.58036,49.5607815 C229.622225,47.2554609 230.249628,45.1877094 232.56247,42.8634483 L232.56247,42.8634483 L232.745025,42.6887952 C236.421613,39.3335536 248.526242,37.2213559 250.014736,36.82 L250.014736,36.82 L250.130629,36.7850756 C251.083325,36.4665201 251.695688,35.4663926 250.960141,34.2641379 L250.960141,34.2641379 L250.858033,34.1105161 C249.929048,32.8182773 247.868961,32.5390549 245.770703,32.8910345 L245.770703,32.8910345 L245.56658,32.9325697 C243.459585,33.4358075 241.443655,36.1806897 241.443655,36.1806897 L241.443655,36.1806897 L229.747522,34.922069 C230.474071,32.8772414 231.490828,25.1372414 248.707085,25.1372414 L248.707085,25.1372414 Z M287.767148,25.4455172 L288.044622,25.4482913 C291.647417,25.5191457 295.052532,26.9234483 295.052532,26.9234483 L295.052532,26.9234483 L289.568769,35.1531034 L289.203054,35.0915428 C277.299731,33.3324526 281.69062,58.3675862 281.69062,58.3675862 L281.69062,58.3675862 L267.941763,58.3675862 L267.941763,25.5262069 L280.994944,25.4462069 L280.994944,28.6317241 C282.521451,26.1696552 285.174487,25.4455172 287.767148,25.4455172 L287.767148,25.4455172 Z M311.227335,24.7103448 L311.564426,24.7132549 C321.318475,24.8817947 329.170141,32.3497492 329.170141,41.537931 L329.170141,41.537931 L329.163001,41.9992331 C329.144098,42.612 329.088225,43.2155862 329.002054,43.8103448 L329.002054,43.8103448 L305.341534,43.8262069 L305.408915,44.0940807 C306.237113,47.1947696 308.5286,49.4248276 311.227335,49.4248276 L311.227335,49.4248276 L311.46193,49.4191809 C313.407756,49.325352 315.119862,48.0692308 316.194487,46.1793103 L316.194487,46.1793103 L328.47378,46.1793103 L328.371241,46.5026932 C326.112231,53.3724887 319.293668,58.3675862 311.227335,58.3675862 L311.227335,58.3675862 L310.890243,58.3646758 C301.136194,58.1961206 293.284528,50.7274765 293.284528,41.537931 C293.284528,32.2441379 301.31773,24.7103448 311.227335,24.7103448 L311.227335,24.7103448 Z M251.455065,43.2932396 C249.514279,41.7105943 243.598603,45.3393103 243.598603,45.3393103 L243.598603,45.3393103 C243.588462,45.3445471 243.577071,45.3505109 243.560683,45.3593826 L243.455303,45.4187121 C242.765703,45.8200082 239.92509,47.7074536 242.484424,50.2813793 C242.484424,50.2813793 243.326233,51.5565517 244.993385,51.5565517 L244.993385,51.5565517 L245.166416,51.5520115 C245.811438,51.5183477 246.572719,51.2934483 247.448146,50.7434483 L247.448146,50.7434483 L247.653081,50.6123585 C250.849323,48.5311677 253.342765,45.1798994 251.56457,43.3924138 L251.56457,43.3924138 Z M136.407605,33.6524138 L136.200463,33.6568019 C132.899613,33.796853 130.256981,37.2716397 130.256981,41.537931 C130.256981,45.8937931 133.010869,49.4248276 136.407605,49.4248276 L136.407605,49.4248276 L136.614706,49.4204386 C139.914912,49.2803602 142.557543,45.804898 142.557543,41.537931 L142.557543,41.537931 L142.55412,41.2723414 C142.444872,37.0401333 139.734348,33.6524138 136.407605,33.6524138 L136.407605,33.6524138 Z M311.227335,33.6524138 C308.679268,33.6524138 306.492761,35.6393103 305.559019,38.4710345 L305.559019,38.4710345 L316.894965,38.4710345 L316.806713,38.2159641 C315.829061,35.5207169 313.698187,33.6524138 311.227335,33.6524138 Z" id="Combined-Shape" fill="#0D63BA"></path>
        </g>
    </g>
</svg>